<svg id="Layer_1" data-name="Layer 1" xmlns="http://www.w3.org/2000/svg" viewBox="0 0 293.76 60"><defs><style>.cls-1{fill:#9f4282;}</style></defs><title>dinnerparty</title><path class="cls-1" d="M14.4,42.6,13.92,45H5.28L13.44,6.84l8.88-1.2L15.12,39.3a5.83,5.83,0,0,0,3.42,1.2q3.42,0,6-4a31.28,31.28,0,0,0,4.05-10.08A53.79,53.79,0,0,0,30.06,14.1q0-5.88-2.31-8.61A8,8,0,0,0,21.3,2.76a17.92,17.92,0,0,0-8.07,1.77A13.5,13.5,0,0,0,7.62,9.6a14.42,14.42,0,0,0-2,7.74A7.87,7.87,0,0,0,6,20.43a5.21,5.21,0,0,1,.42,1A7.49,7.49,0,0,1,1.65,20.1,5.13,5.13,0,0,1,0,15.84,11.9,11.9,0,0,1,3.06,8.1a21.64,21.64,0,0,1,8.19-5.88A27.57,27.57,0,0,1,22.32,0q8.22,0,12.12,4.86t3.9,12.42A40.68,40.68,0,0,1,36,30.75a30.88,30.88,0,0,1-6.15,10.83q-3.84,4.2-8.16,4.2Q18.12,45.78,14.4,42.6Z"/><path class="cls-1" d="M40.71,43.56a7.41,7.41,0,0,1-1.77-5.4,20.8,20.8,0,0,1,.48-3.9L43.5,15h8.64L47.82,35.4a7.43,7.43,0,0,0-.24,1.92A2.2,2.2,0,0,0,48.15,39a2.81,2.81,0,0,0,1.89.51,4.57,4.57,0,0,0,3.24-1.47,8.4,8.4,0,0,0,2.16-3.81H58q-2.22,6.48-5.7,8.79a12.43,12.43,0,0,1-6.9,2.31A6.23,6.23,0,0,1,40.71,43.56Zm5.37-33.18A4.57,4.57,0,0,1,44.7,7a4.67,4.67,0,0,1,1.38-3.39,4.52,4.52,0,0,1,3.36-1.41,4.62,4.62,0,0,1,3.39,1.41A4.62,4.62,0,0,1,54.24,7a4.52,4.52,0,0,1-1.41,3.36,4.67,4.67,0,0,1-3.39,1.38A4.57,4.57,0,0,1,46.08,10.38Z"/><path class="cls-1" d="M71.73,43.41A7.06,7.06,0,0,1,70,38.58a15.54,15.54,0,0,1,.3-2.85q.3-1.59.63-3.09t.45-1.92q.48-2.1.9-4.14a17.16,17.16,0,0,0,.42-3.3q0-3.06-2.16-3.06a3.47,3.47,0,0,0-2.76,1.53,11.78,11.78,0,0,0-1.92,4L61.8,45H53.16l6.36-30h8.64l-.66,3.12a9.15,9.15,0,0,1,7-3.36,6.84,6.84,0,0,1,4.86,1.68,6.65,6.65,0,0,1,1.8,5.1,20.16,20.16,0,0,1-.42,3.87q-.42,2.13-1.2,5.19-.48,1.86-.87,3.63A13.81,13.81,0,0,0,78.3,37a2.86,2.86,0,0,0,.54,1.86,2.28,2.28,0,0,0,1.86.66,3.57,3.57,0,0,0,2.88-1.29,15.13,15.13,0,0,0,2.16-4h2.52q-2.22,6.6-5.13,8.85a9.75,9.75,0,0,1-6,2.25Q73.44,45.36,71.73,43.41Z"/><path class="cls-1" d="M102,43.41a7.06,7.06,0,0,1-1.71-4.83,15.54,15.54,0,0,1,.3-2.85q.3-1.59.63-3.09t.45-1.92q.48-2.1.9-4.14a17.16,17.16,0,0,0,.42-3.3q0-3.06-2.16-3.06a3.47,3.47,0,0,0-2.76,1.53,11.78,11.78,0,0,0-1.92,4L92.1,45H83.46l6.36-30h8.64l-.66,3.12a9.15,9.15,0,0,1,7-3.36,6.84,6.84,0,0,1,4.86,1.68,6.65,6.65,0,0,1,1.8,5.1,20.16,20.16,0,0,1-.42,3.87q-.42,2.13-1.2,5.19-.48,1.86-.87,3.63A13.81,13.81,0,0,0,108.6,37a2.86,2.86,0,0,0,.54,1.86,2.28,2.28,0,0,0,1.86.66,3.57,3.57,0,0,0,2.88-1.29,15.13,15.13,0,0,0,2.16-4h2.52q-2.22,6.6-5.13,8.85a9.75,9.75,0,0,1-6,2.25Q103.74,45.36,102,43.41Z"/><path class="cls-1" d="M117.72,43.05q-2.46-2.31-2.46-7.23a29.7,29.7,0,0,1,1.62-9.12,21.17,21.17,0,0,1,5.28-8.61,12.66,12.66,0,0,1,9.3-3.63q6.6,0,6.6,5.76a10.75,10.75,0,0,1-1.92,6.18,14.16,14.16,0,0,1-5.1,4.53,16.47,16.47,0,0,1-6.78,2q-.12,1.8-.12,2.4,0,2.94,1,4a4.44,4.44,0,0,0,3.3,1,10,10,0,0,0,5.55-1.5,26.9,26.9,0,0,0,5.07-4.56h2q-6.66,11.1-16.5,11.1A9.69,9.69,0,0,1,117.72,43.05ZM129,28.44a11,11,0,0,0,3.24-3.66,9.52,9.52,0,0,0,1.23-4.68q0-2.46-1.5-2.46-2.16,0-4.23,3.78a28.79,28.79,0,0,0-3,8.58A7.91,7.91,0,0,0,129,28.44Z"/><path class="cls-1" d="M143.16,15h8.64L151,18.72A24,24,0,0,1,154.71,16a7,7,0,0,1,3.57-1,3.75,3.75,0,0,1,3,1.32,4.78,4.78,0,0,1,1.11,3.18,4.54,4.54,0,0,1-1.14,3.06,4,4,0,0,1-3.18,1.32,2.06,2.06,0,0,1-1.77-.63,4.79,4.79,0,0,1-.69-1.83,5.51,5.51,0,0,0-.36-1.14.67.67,0,0,0-.66-.36,4.15,4.15,0,0,0-2.13.51,14.64,14.64,0,0,0-2.25,1.77L145.44,45H136.8Z"/><path class="cls-1" d="M175.44,6.84l8.88-1.2-4.26,20a8.73,8.73,0,0,0,5.31-2.52,15.88,15.88,0,0,0,3.81-5.64,17.29,17.29,0,0,0,1.38-6.6A9,9,0,0,0,188.7,5a6.78,6.78,0,0,0-5.58-2.28q-7.32,0-11.43,3.84t-4.11,10.74a7.87,7.87,0,0,0,.42,3.09,5.21,5.21,0,0,1,.42,1,7.33,7.33,0,0,1-4.83-1.35Q162,18.72,162,15.6a11.34,11.34,0,0,1,3.15-7.47A25,25,0,0,1,183.06,0,17.34,17.34,0,0,1,191,1.62a11,11,0,0,1,4.71,4.29,11.68,11.68,0,0,1,1.53,5.91,15.16,15.16,0,0,1-2.13,7.62A16.77,16.77,0,0,1,189,25.53a17.41,17.41,0,0,1-9.12,2.37h-.3L175.92,45h-8.64Z"/><path class="cls-1" d="M197.52,43q-2.28-2.34-2.28-7.32A27.41,27.41,0,0,1,197,26.37a21.49,21.49,0,0,1,5.28-8.28,11.63,11.63,0,0,1,8.37-3.39,6.43,6.43,0,0,1,3.66.84,2.59,2.59,0,0,1,1.2,2.22v.42l.66-3.18h8.64L220.5,35.4a7.43,7.43,0,0,0-.24,1.92q0,2.58,2.46,2.58a3.62,3.62,0,0,0,2.91-1.56,11.75,11.75,0,0,0,2-4.08h2.52q-2.22,6.48-5.49,8.79A11.32,11.32,0,0,1,218,45.36,5.74,5.74,0,0,1,214,44a6.31,6.31,0,0,1-1.83-4.11,16.75,16.75,0,0,1-3.87,4,8.46,8.46,0,0,1-5.07,1.53A7.63,7.63,0,0,1,197.52,43Zm12.57-4.89a7.4,7.4,0,0,0,2-3.87L215,20.7a2.43,2.43,0,0,0-.6-1.53,2.24,2.24,0,0,0-1.86-.75q-2.4,0-4.32,2.79a22.09,22.09,0,0,0-3,6.72,26.58,26.58,0,0,0-1.08,6.93q0,3,.87,3.84a3,3,0,0,0,2.13.84A4.33,4.33,0,0,0,210.09,38.13Z"/><path class="cls-1" d="M231.66,15h8.64l-.78,3.72A24,24,0,0,1,243.21,16a7,7,0,0,1,3.57-1,3.75,3.75,0,0,1,3,1.32,4.78,4.78,0,0,1,1.11,3.18,4.54,4.54,0,0,1-1.14,3.06,4,4,0,0,1-3.18,1.32,2.06,2.06,0,0,1-1.77-.63,4.79,4.79,0,0,1-.69-1.83,5.51,5.51,0,0,0-.36-1.14.67.67,0,0,0-.66-.36,4.15,4.15,0,0,0-2.13.51,14.64,14.64,0,0,0-2.25,1.77L233.94,45H225.3Z"/><path class="cls-1" d="M251.43,43.56a7.41,7.41,0,0,1-1.77-5.4,20.8,20.8,0,0,1,.48-3.9l3.6-16.86h-2l.48-2.4h2L256,6.72l8.88-1.2-2,9.48h3.6L266,17.4h-3.6l-3.84,18a7.43,7.43,0,0,0-.24,1.92,2.2,2.2,0,0,0,.57,1.71,2.81,2.81,0,0,0,1.89.51A4.57,4.57,0,0,0,264,38.07a8.4,8.4,0,0,0,2.16-3.81h2.52q-2.22,6.48-5.7,8.79a12.43,12.43,0,0,1-6.9,2.31A6.23,6.23,0,0,1,251.43,43.56Z"/><path class="cls-1" d="M270.57,58.17a5.86,5.86,0,0,1-2.13-4.65,6.78,6.78,0,0,1,1.32-4.32,9,9,0,0,1,3.42-2.64,47.12,47.12,0,0,1,5.64-2l.6-2.64a9.43,9.43,0,0,1-7.32,3.48,6.23,6.23,0,0,1-4.65-1.8,7.41,7.41,0,0,1-1.77-5.4,20.8,20.8,0,0,1,.48-3.9L270.24,15h8.64l-4.32,20.4a6.16,6.16,0,0,0-.18,1.5q0,2.64,1.8,2.64a3.66,3.66,0,0,0,2.88-1.41A10.6,10.6,0,0,0,281,34.26L285.06,15h8.7l-7.32,34.8q-1.2,5.76-4.23,8A11.06,11.06,0,0,1,275.52,60,7.35,7.35,0,0,1,270.57,58.17Zm5.61-4.62a8.32,8.32,0,0,0,1.5-3.57l.72-3.54A15.49,15.49,0,0,0,273.48,49a4.58,4.58,0,0,0-1.74,3.72,1.8,1.8,0,0,0,.72,1.35,2.47,2.47,0,0,0,1.68.63A2.72,2.72,0,0,0,276.18,53.55Z"/></svg>